<?xml version="1.0" encoding="UTF-8" standalone="no"?>
<!DOCTYPE svg PUBLIC "-//W3C//DTD SVG 1.1//EN" "http://www.w3.org/Graphics/SVG/1.1/DTD/svg11.dtd">
<svg xmlns="http://www.w3.org/2000/svg" version="1.1" viewBox="0.00 0.00 300.00 295.00">
<g stroke-width="2.00" fill="none" stroke-linecap="butt">
<path stroke="#279599" vector-effect="non-scaling-stroke" d="
  M 100.13 30.29
  Q 108.98 33.15 115.19 38.27
  Q 119.54 41.86 117.82 45.96
  Q 116.38 49.40 113.08 50.12
  Q 109.74 50.86 106.19 47.81"
/>
<path stroke="#008085" vector-effect="non-scaling-stroke" d="
  M 55.98 62.71
  Q 50.84 72.70 53.11 84.27
  Q 54.29 90.31 58.28 94.98
  Q 60.05 97.04 62.12 99.19"
/>
<path stroke="#279599" vector-effect="non-scaling-stroke" d="
  M 62.12 99.19
  Q 60.95 99.74 60.38 100.64"
/>
<path stroke="#008085" vector-effect="non-scaling-stroke" d="
  M 31.75 113.14
  Q 18.17 131.13 31.47 149.04
  Q 36.22 155.44 43.42 157.00
  Q 51.59 158.77 59.25 155.75
  Q 59.78 155.53 60.09 156.02
  C 63.18 160.87 67.70 166.82 73.16 167.84
  Q 73.71 167.94 73.66 167.39
  L 73.22 162.92"
/>
<path stroke="#279599" vector-effect="non-scaling-stroke" d="
  M 73.22 162.92
  Q 73.46 152.09 79.57 143.54
  C 82.58 139.32 88.03 138.46 90.81 143.47
  Q 92.22 146.01 91.49 147.41
  Q 88.93 152.28 87.60 157.49"
/>
<path stroke="#008085" vector-effect="non-scaling-stroke" d="
  M 87.60 157.49
  C 85.64 164.00 87.93 171.71 91.91 176.69
  Q 101.69 188.94 118.17 187.39
  Q 129.05 186.37 136.06 179.54
  Q 143.63 172.17 142.97 160.58"
/>
<path stroke="#279599" vector-effect="non-scaling-stroke" d="
  M 142.97 160.58
  Q 143.09 101.61 142.96 42.75
  Q 142.96 41.68 142.53 40.84"
/>
<path stroke="#27d0c7" vector-effect="non-scaling-stroke" d="
  M 142.97 160.58
  Q 141.73 162.25 140.97 164.10
  Q 139.90 166.71 139.22 167.68
  C 126.54 185.72 98.80 184.13 89.43 163.82
  C 88.48 161.77 88.13 159.69 87.60 157.49"
/>
<path stroke="#27d0c7" vector-effect="non-scaling-stroke" d="
  M 73.22 162.92
  Q 70.11 161.48 67.99 158.91
  Q 67.27 158.04 66.37 157.50
  Q 65.33 156.88 64.25 156.29
  Q 62.95 155.58 62.24 154.35
  C 60.66 151.62 59.77 150.37 56.32 151.24
  Q 45.39 153.99 37.42 147.35
  Q 24.29 136.42 29.36 119.00
  Q 29.90 117.15 31.33 116.19"
/>
<path stroke="#27d0c7" vector-effect="non-scaling-stroke" d="
  M 62.12 99.19
  Q 64.49 98.18 65.34 96.05
  A 1.97 1.95 -55.8 0 0 64.95 93.97
  Q 55.35 83.79 56.46 69.57"
/>
<path stroke="#279599" vector-effect="non-scaling-stroke" d="
  M 157.34 40.49
  L 157.00 160.77"
/>
<path stroke="#008085" vector-effect="non-scaling-stroke" d="
  M 157.00 160.77
  Q 156.81 166.31 157.25 167.76
  Q 162.32 184.51 179.62 187.14
  C 194.41 189.39 208.65 182.52 212.48 167.28
  Q 213.16 164.57 212.30 158.39"
/>
<path stroke="#279599" vector-effect="non-scaling-stroke" d="
  M 212.30 158.39
  Q 211.34 154.11 209.36 150.08
  Q 208.43 148.18 208.24 146.56
  C 207.90 143.72 209.90 141.03 212.66 140.41
  C 216.61 139.51 219.95 142.63 221.83 145.74
  Q 226.32 153.16 226.50 162.26"
/>
<path stroke="#008085" vector-effect="non-scaling-stroke" d="
  M 226.50 162.26
  L 226.00 167.38
  Q 225.94 168.00 226.54 167.85
  C 232.60 166.37 237.18 160.99 240.06 155.67
  Q 240.39 155.06 240.99 155.41
  Q 246.07 158.38 253.60 157.56
  Q 258.28 157.05 263.60 153.37
  Q 280.18 141.93 272.30 119.68"
/>
<path stroke="#279599" vector-effect="non-scaling-stroke" d="
  M 272.30 119.68
  L 268.92 114.76"
/>
<path stroke="#279599" vector-effect="non-scaling-stroke" d="
  M 240.22 100.68
  L 238.63 99.43"
/>
<path stroke="#008085" vector-effect="non-scaling-stroke" d="
  M 238.63 99.43
  Q 242.10 95.83 243.53 93.00
  Q 250.93 78.35 243.95 63.46"
/>
<path stroke="#279599" vector-effect="non-scaling-stroke" d="
  M 193.21 48.06
  Q 190.52 49.68 189.70 50.00
  C 186.11 51.39 181.18 48.46 181.54 44.40
  C 182.16 37.40 193.84 32.27 200.29 30.24"
/>
<path stroke="#27d0c7" vector-effect="non-scaling-stroke" d="
  M 242.89 70.77
  Q 244.65 80.37 237.79 90.32
  Q 236.51 92.18 235.02 94.11
  Q 234.71 94.51 234.83 95.00
  Q 235.61 98.13 238.63 99.43"
/>
<path stroke="#27d0c7" vector-effect="non-scaling-stroke" d="
  M 272.30 119.68
  Q 270.43 119.81 271.15 124.51
  Q 271.98 129.84 271.30 132.80
  Q 268.09 146.72 255.18 151.08
  Q 250.46 152.67 246.83 151.79
  Q 243.42 150.97 240.24 150.25
  Q 237.95 149.73 236.19 150.56
  Q 233.92 151.65 232.72 153.84
  C 231.68 155.73 230.12 157.09 228.71 158.72
  Q 228.38 159.10 228.34 159.60
  Q 228.05 162.94 226.50 162.26"
/>
<path stroke="#27d0c7" vector-effect="non-scaling-stroke" d="
  M 212.30 158.39
  Q 211.67 158.85 211.92 160.27
  Q 211.98 160.59 211.66 160.69
  Q 211.28 160.81 211.20 161.19
  C 209.57 168.80 203.05 174.84 196.03 177.84
  C 186.00 182.13 175.38 180.67 166.77 173.94
  C 161.54 169.84 159.80 165.94 157.00 160.77"
/>
<path stroke="#279599" vector-effect="non-scaling-stroke" d="
  M 214.32 97.29
  Q 222.59 91.17 225.66 82.70
  Q 230.30 69.85 222.16 57.84
  C 219.57 54.02 214.98 51.72 210.86 55.07
  C 206.82 58.35 208.83 62.03 211.28 65.24
  C 214.19 69.05 214.69 74.02 212.73 78.34
  Q 209.82 84.75 202.32 87.74
  Q 195.94 90.29 189.70 93.23
  A 0.33 0.33 0.0 0 1 189.23 92.97
  Q 188.20 84.08 183.11 78.53
  C 178.99 74.04 171.52 75.63 171.02 82.02
  C 170.83 84.41 172.58 86.32 173.74 88.26
  C 177.90 95.19 177.12 102.57 174.10 109.81
  C 170.76 117.81 180.40 123.56 185.33 116.54
  C 187.19 113.88 188.38 110.91 190.87 108.69
  Q 196.66 103.51 204.69 101.70"
/>
<path stroke="#279599" vector-effect="non-scaling-stroke" d="
  M 245.94 133.94
  Q 249.49 135.37 251.73 135.11
  Q 256.54 134.57 257.44 129.70
  C 258.81 122.33 249.72 119.88 243.83 118.78
  Q 235.36 117.21 227.77 117.00
  C 218.09 116.74 217.05 129.94 227.41 130.29
  C 233.81 130.51 240.40 131.72 245.94 133.94"
/>
<path stroke="#279599" vector-effect="non-scaling-stroke" d="
  M 174.99 146.51
  C 173.22 149.33 171.13 153.60 171.60 157.00
  C 172.31 162.10 179.38 165.93 183.32 160.80
  C 184.45 159.34 184.86 157.52 185.37 155.78
  C 186.88 150.60 191.88 147.86 196.82 146.84
  C 206.69 144.81 203.42 131.95 194.58 133.42
  Q 181.83 135.55 174.99 146.51"
/>
<path stroke="#279599" vector-effect="non-scaling-stroke" d="
  M 95.82 102.48
  Q 95.92 102.25 96.22 102.33
  Q 107.93 105.15 113.33 114.90
  C 115.03 117.97 117.82 120.60 121.41 119.56
  C 126.01 118.22 126.97 113.75 125.34 109.66
  C 121.95 101.14 121.85 93.91 127.24 86.29
  C 132.72 78.55 122.76 72.51 116.73 78.29
  C 113.21 81.66 110.89 87.48 110.25 92.77
  Q 110.15 93.62 109.41 93.18
  Q 104.95 90.54 99.62 88.85
  C 94.55 87.24 89.98 84.62 87.45 79.75
  C 83.85 72.85 86.18 67.91 90.24 62.32
  C 92.39 59.37 90.42 55.76 87.59 54.20
  C 83.88 52.15 79.91 54.32 77.64 57.47
  Q 72.46 64.68 72.33 73.00
  Q 72.15 85.07 80.91 93.58
  Q 82.84 95.45 85.23 97.40"
/>
<path stroke="#279599" vector-effect="non-scaling-stroke" d="
  M 52.31 134.19
  C 58.50 131.57 66.16 130.35 72.72 130.09
  C 82.19 129.72 81.51 116.77 72.22 116.92
  Q 60.68 117.11 48.90 120.72
  C 45.39 121.79 41.71 125.67 42.65 129.71
  C 43.68 134.15 48.18 135.94 52.31 134.19"
/>
<path stroke="#279599" vector-effect="non-scaling-stroke" d="
  M 105.59 133.54
  C 101.96 132.86 97.95 134.45 96.96 138.29
  Q 96.07 141.75 98.44 144.29
  C 100.29 146.27 103.13 146.62 105.57 147.58
  Q 113.18 150.59 114.77 157.67
  C 115.66 161.64 119.90 164.78 123.80 162.60
  C 129.85 159.22 127.92 152.17 125.04 147.37
  Q 118.16 135.90 105.59 133.54"
/>
<path stroke="#5298a1" vector-effect="non-scaling-stroke" d="
  M 41.26 192.38
  L 32.29 211.66"
/>
<path stroke="#5298a1" vector-effect="non-scaling-stroke" d="
  M 25.35 227.90
  L 18.95 241.76
  Q 18.67 242.37 19.32 242.25
  C 31.67 240.04 44.82 238.34 56.91 238.56
  Q 63.83 238.69 70.05 239.10
  C 85.84 240.12 103.13 244.98 117.15 252.50
  C 120.78 254.45 124.11 256.96 127.38 259.50
  Q 127.98 259.96 128.31 259.28
  Q 130.90 254.01 135.21 250.27
  A 0.79 0.79 0.0 0 0 135.27 249.15
  C 124.85 237.79 110.52 228.86 96.24 223.71
  Q 93.56 222.74 90.71 222.04"
/>
<path stroke="#5298a1" vector-effect="non-scaling-stroke" d="
  M 71.47 215.90
  Q 67.10 209.72 73.93 205.12"
/>
<path stroke="#5298a1" vector-effect="non-scaling-stroke" d="
  M 226.61 205.30
  Q 232.56 209.51 228.90 216.27"
/>
<path stroke="#5298a1" vector-effect="non-scaling-stroke" d="
  M 208.66 221.99
  Q 207.47 222.13 206.55 222.67"
/>
<path stroke="#5298a1" vector-effect="non-scaling-stroke" d="
  M 205.26 223.03
  Q 188.51 228.95 174.48 239.70
  Q 169.33 243.65 164.35 249.26
  A 0.72 0.72 0.0 0 0 164.41 250.28
  Q 168.77 254.10 171.49 259.28
  A 0.49 0.48 -34.0 0 0 172.24 259.42
  Q 181.28 251.73 194.68 246.84
  Q 215.80 239.14 237.25 238.46
  Q 252.11 237.99 266.83 240.21"
/>
<path stroke="#5298a1" vector-effect="non-scaling-stroke" d="
  M 268.69 240.29
  L 280.76 242.52
  A 0.28 0.28 0.0 0 0 281.06 242.12
  Q 277.80 235.42 274.79 228.34
  Q 274.73 228.22 274.61 228.16
  Q 274.40 228.06 274.27 228.24"
/>
<path stroke="#5298a1" vector-effect="non-scaling-stroke" d="
  M 267.11 210.87
  L 258.73 192.20"
/>
<path stroke="#279599" vector-effect="non-scaling-stroke" d="
  M 18.58 256.00
  L 14.00 256.78
  Q 12.90 256.97 13.17 258.06
  Q 14.49 263.27 18.97 265.72
  Q 21.45 267.08 26.35 267.07
  Q 72.97 266.94 114.80 267.06
  Q 116.56 267.07 115.01 266.22
  Q 105.21 260.87 95.54 257.68"
/>
<path stroke="#5298a1" vector-effect="non-scaling-stroke" d="
  M 95.54 257.68
  Q 76.86 251.72 55.75 252.28
  Q 35.88 252.81 18.58 256.00"
/>
<path stroke="#78e8e3" vector-effect="non-scaling-stroke" d="
  M 95.54 257.68
  L 95.63 258.11
  A 0.67 0.66 -84.7 0 1 94.73 258.86
  Q 91.83 257.69 88.53 257.31
  C 84.19 256.82 79.88 256.22 75.49 256.41
  C 68.50 256.70 61.65 256.12 54.83 256.25
  Q 41.11 256.50 27.86 256.40
  C 27.15 256.40 25.68 256.02 25.24 256.14
  Q 21.48 257.26 18.58 256.00"
/>
<path stroke="#279599" vector-effect="non-scaling-stroke" d="
  M 206.19 256.89
  Q 194.67 260.29 184.33 266.12
  Q 182.66 267.05 184.57 267.05
  Q 229.05 266.96 274.50 267.11
  Q 282.86 267.13 286.19 258.46
  Q 286.62 257.32 285.48 256.92
  Q 281.12 255.39 277.33 256.05"
/>
<path stroke="#5298a1" vector-effect="non-scaling-stroke" d="
  M 277.33 256.05
  Q 266.86 253.43 253.00 252.67
  Q 231.85 251.52 214.01 254.82
  Q 209.99 255.56 206.19 256.89"
/>
<path stroke="#78e8e3" vector-effect="non-scaling-stroke" d="
  M 277.33 256.05
  Q 246.18 256.05 215.70 256.56
  C 212.51 256.61 209.54 257.45 206.43 257.88
  A 0.38 0.38 0.0 0 1 206.00 257.49
  Q 206.01 257.29 206.19 256.89"
/>
</g>
<path fill="#004457" d="
  M 181.05 0.00
  L 182.65 0.00
  Q 209.55 3.30 218.91 27.94
  A 1.91 1.91 0.0 0 0 220.42 29.15
  Q 225.10 29.84 229.14 31.51
  Q 253.00 41.39 259.17 65.77
  Q 262.07 77.22 258.61 90.05
  A 0.68 0.68 0.0 0 0 259.07 90.88
  C 271.81 94.71 281.50 104.74 285.76 116.94
  Q 291.63 133.75 284.49 149.10
  Q 280.00 158.76 271.75 164.50
  C 264.59 169.49 252.73 172.67 244.12 169.06
  A 1.00 1.00 0.0 0 0 242.94 169.37
  C 238.88 174.64 230.13 178.82 223.46 177.52
  Q 222.81 177.39 222.52 177.99
  Q 212.97 197.99 189.79 200.17
  Q 181.02 200.99 172.93 197.48
  A 0.84 0.83 -67.5 0 0 171.83 197.94
  C 168.24 206.67 159.91 212.67 150.32 212.73
  C 139.96 212.79 132.22 206.62 127.85 197.62
  A 0.56 0.56 0.0 0 0 127.15 197.34
  Q 109.56 203.92 93.98 195.58
  Q 82.87 189.63 77.19 178.01
  Q 76.95 177.51 76.39 177.55
  Q 65.96 178.31 56.76 169.78
  Q 56.31 169.36 55.72 169.52
  Q 46.82 172.01 37.40 168.91
  Q 25.01 164.82 17.84 153.24
  C 3.50 130.08 14.90 99.10 40.62 90.71
  Q 41.26 90.50 41.08 89.86
  Q 39.49 83.85 39.33 81.62
  Q 37.46 54.38 59.82 37.56
  Q 68.72 30.86 80.48 28.80
  Q 81.06 28.70 81.26 28.15
  Q 82.84 23.82 84.81 20.57
  Q 95.90 2.32 117.20 0.28
  Q 123.07 -0.28 130.55 1.92
  Q 140.86 4.95 147.95 13.08
  C 148.51 13.73 148.87 14.56 149.35 15.26
  Q 149.79 15.91 150.25 15.27
  Q 159.82 2.03 176.51 0.46
  Q 178.76 0.25 181.05 0.00
  Z
  M 100.13 30.29
  Q 108.98 33.15 115.19 38.27
  Q 119.54 41.86 117.82 45.96
  Q 116.38 49.40 113.08 50.12
  Q 109.74 50.86 106.19 47.81
  Q 92.21 38.16 76.01 43.61
  Q 67.03 46.63 61.02 54.02
  Q 57.94 57.81 55.98 62.71
  Q 50.84 72.70 53.11 84.27
  Q 54.29 90.31 58.28 94.98
  Q 60.05 97.04 62.12 99.19
  Q 60.95 99.74 60.38 100.64
  Q 50.81 100.87 43.93 103.66
  Q 37.21 106.38 31.75 113.14
  Q 18.17 131.13 31.47 149.04
  Q 36.22 155.44 43.42 157.00
  Q 51.59 158.77 59.25 155.75
  Q 59.78 155.53 60.09 156.02
  C 63.18 160.87 67.70 166.82 73.16 167.84
  Q 73.71 167.94 73.66 167.39
  L 73.22 162.92
  Q 73.46 152.09 79.57 143.54
  C 82.58 139.32 88.03 138.46 90.81 143.47
  Q 92.22 146.01 91.49 147.41
  Q 88.93 152.28 87.60 157.49
  C 85.64 164.00 87.93 171.71 91.91 176.69
  Q 101.69 188.94 118.17 187.39
  Q 129.05 186.37 136.06 179.54
  Q 143.63 172.17 142.97 160.58
  Q 143.09 101.61 142.96 42.75
  Q 142.96 41.68 142.53 40.84
  Q 142.65 40.78 142.77 40.75
  Q 142.93 40.70 142.94 40.54
  Q 144.17 22.76 129.77 15.86
  C 124.56 13.36 117.73 12.75 111.95 14.65
  Q 99.78 18.66 95.52 28.86
  A 0.40 0.40 0.0 0 0 95.81 29.41
  L 100.13 30.29
  Z
  M 157.34 40.49
  L 157.00 160.77
  Q 156.81 166.31 157.25 167.76
  Q 162.32 184.51 179.62 187.14
  C 194.41 189.39 208.65 182.52 212.48 167.28
  Q 213.16 164.57 212.30 158.39
  Q 211.34 154.11 209.36 150.08
  Q 208.43 148.18 208.24 146.56
  C 207.90 143.72 209.90 141.03 212.66 140.41
  C 216.61 139.51 219.95 142.63 221.83 145.74
  Q 226.32 153.16 226.50 162.26
  L 226.00 167.38
  Q 225.94 168.00 226.54 167.85
  C 232.60 166.37 237.18 160.99 240.06 155.67
  Q 240.39 155.06 240.99 155.41
  Q 246.07 158.38 253.60 157.56
  Q 258.28 157.05 263.60 153.37
  Q 280.18 141.93 272.30 119.68
  L 268.92 114.76
  Q 263.14 105.62 252.50 102.56
  Q 246.87 100.95 240.22 100.68
  L 238.63 99.43
  Q 242.10 95.83 243.53 93.00
  Q 250.93 78.35 243.95 63.46
  Q 243.70 62.65 243.33 61.87
  Q 237.75 49.97 226.70 44.75
  Q 218.56 40.91 209.85 41.76
  Q 200.98 42.62 193.21 48.06
  Q 190.52 49.68 189.70 50.00
  C 186.11 51.39 181.18 48.46 181.54 44.40
  C 182.16 37.40 193.84 32.27 200.29 30.24
  L 203.99 29.25
  Q 204.85 29.02 204.41 28.25
  C 197.78 16.50 185.34 10.78 172.44 14.80
  Q 161.57 18.18 158.08 29.33
  Q 156.51 34.34 157.34 40.49
  Z"
/>
<path fill="#4de5da" d="
  M 200.29 30.24
  C 193.84 32.27 182.16 37.40 181.54 44.40
  C 181.18 48.46 186.11 51.39 189.70 50.00
  Q 190.52 49.68 193.21 48.06
  L 196.49 50.81
  A 3.11 3.11 0.0 0 0 200.11 51.09
  Q 210.29 44.92 221.86 49.05
  Q 230.25 52.03 234.47 56.76
  Q 238.06 60.77 242.89 70.77
  Q 244.65 80.37 237.79 90.32
  Q 236.51 92.18 235.02 94.11
  Q 234.71 94.51 234.83 95.00
  Q 235.61 98.13 238.63 99.43
  L 240.22 100.68
  Q 239.02 101.06 238.88 102.14
  A 1.11 1.10 -84.6 0 0 239.90 103.38
  Q 256.45 104.49 267.47 116.59
  Q 267.69 116.84 268.00 116.93
  Q 268.20 116.98 268.41 117.04
  Q 269.14 117.25 269.07 116.49
  L 268.92 114.76
  L 272.30 119.68
  Q 270.43 119.81 271.15 124.51
  Q 271.98 129.84 271.30 132.80
  Q 268.09 146.72 255.18 151.08
  Q 250.46 152.67 246.83 151.79
  Q 243.42 150.97 240.24 150.25
  Q 237.95 149.73 236.19 150.56
  Q 233.92 151.65 232.72 153.84
  C 231.68 155.73 230.12 157.09 228.71 158.72
  Q 228.38 159.10 228.34 159.60
  Q 228.05 162.94 226.50 162.26
  Q 226.32 153.16 221.83 145.74
  C 219.95 142.63 216.61 139.51 212.66 140.41
  C 209.90 141.03 207.90 143.72 208.24 146.56
  Q 208.43 148.18 209.36 150.08
  Q 211.34 154.11 212.30 158.39
  Q 211.67 158.85 211.92 160.27
  Q 211.98 160.59 211.66 160.69
  Q 211.28 160.81 211.20 161.19
  C 209.57 168.80 203.05 174.84 196.03 177.84
  C 186.00 182.13 175.38 180.67 166.77 173.94
  C 161.54 169.84 159.80 165.94 157.00 160.77
  L 157.34 40.49
  Q 158.03 40.86 158.46 40.86
  Q 158.89 40.87 158.96 40.44
  Q 160.20 32.84 164.87 27.80
  Q 173.75 18.22 186.00 20.81
  Q 194.19 22.53 200.29 30.24
  Z
  M 204.69 101.70
  Q 204.47 103.06 205.19 102.92
  Q 207.02 102.55 209.11 102.93
  Q 211.26 103.33 212.98 103.48
  Q 221.17 104.23 226.13 109.90
  C 227.80 111.80 230.16 112.66 232.38 111.32
  A 1.39 1.37 -7.7 0 0 233.00 110.52
  Q 233.91 107.26 232.10 105.16
  Q 225.43 97.40 214.32 97.29
  Q 222.59 91.17 225.66 82.70
  Q 230.30 69.85 222.16 57.84
  C 219.57 54.02 214.98 51.72 210.86 55.07
  C 206.82 58.35 208.83 62.03 211.28 65.24
  C 214.19 69.05 214.69 74.02 212.73 78.34
  Q 209.82 84.75 202.32 87.74
  Q 195.94 90.29 189.70 93.23
  A 0.33 0.33 0.0 0 1 189.23 92.97
  Q 188.20 84.08 183.11 78.53
  C 178.99 74.04 171.52 75.63 171.02 82.02
  C 170.83 84.41 172.58 86.32 173.74 88.26
  C 177.90 95.19 177.12 102.57 174.10 109.81
  C 170.76 117.81 180.40 123.56 185.33 116.54
  C 187.19 113.88 188.38 110.91 190.87 108.69
  Q 196.66 103.51 204.69 101.70
  Z
  M 245.94 133.94
  Q 249.49 135.37 251.73 135.11
  Q 256.54 134.57 257.44 129.70
  C 258.81 122.33 249.72 119.88 243.83 118.78
  Q 235.36 117.21 227.77 117.00
  C 218.09 116.74 217.05 129.94 227.41 130.29
  C 233.81 130.51 240.40 131.72 245.94 133.94
  Z
  M 174.99 146.51
  C 173.22 149.33 171.13 153.60 171.60 157.00
  C 172.31 162.10 179.38 165.93 183.32 160.80
  C 184.45 159.34 184.86 157.52 185.37 155.78
  C 186.88 150.60 191.88 147.86 196.82 146.84
  C 206.69 144.81 203.42 131.95 194.58 133.42
  Q 181.83 135.55 174.99 146.51
  Z"
/>
<path fill="#4de5da" d="
  M 142.53 40.84
  Q 142.96 41.68 142.96 42.75
  Q 143.09 101.61 142.97 160.58
  Q 141.73 162.25 140.97 164.10
  Q 139.90 166.71 139.22 167.68
  C 126.54 185.72 98.80 184.13 89.43 163.82
  C 88.48 161.77 88.13 159.69 87.60 157.49
  Q 88.93 152.28 91.49 147.41
  Q 92.22 146.01 90.81 143.47
  C 88.03 138.46 82.58 139.32 79.57 143.54
  Q 73.46 152.09 73.22 162.92
  Q 70.11 161.48 67.99 158.91
  Q 67.27 158.04 66.37 157.50
  Q 65.33 156.88 64.25 156.29
  Q 62.95 155.58 62.24 154.35
  C 60.66 151.62 59.77 150.37 56.32 151.24
  Q 45.39 153.99 37.42 147.35
  Q 24.29 136.42 29.36 119.00
  Q 29.90 117.15 31.33 116.19
  Q 32.79 117.10 33.86 115.86
  Q 43.39 104.93 56.47 104.08
  C 57.72 104.00 59.16 103.45 60.44 103.19
  Q 60.99 103.08 61.00 102.51
  Q 61.00 101.36 60.38 100.64
  Q 60.95 99.74 62.12 99.19
  Q 64.49 98.18 65.34 96.05
  A 1.97 1.95 -55.8 0 0 64.95 93.97
  Q 55.35 83.79 56.46 69.57
  L 57.39 69.48
  Q 57.88 69.44 58.07 68.99
  Q 60.44 63.52 64.58 57.53
  Q 67.21 53.73 70.67 51.86
  Q 74.80 49.63 79.69 48.03
  C 82.39 47.14 85.01 47.53 87.78 47.36
  Q 90.51 47.20 93.22 48.23
  Q 97.60 49.90 101.35 51.82
  Q 101.77 52.03 102.24 51.93
  Q 105.10 51.27 106.19 47.81
  Q 109.74 50.86 113.08 50.12
  Q 116.38 49.40 117.82 45.96
  Q 119.54 41.86 115.19 38.27
  Q 108.98 33.15 100.13 30.29
  Q 102.86 25.04 107.94 22.69
  C 109.96 21.76 113.47 20.53 116.01 20.52
  Q 118.24 20.50 120.41 20.49
  Q 122.20 20.48 124.19 21.07
  Q 137.45 25.01 141.13 38.66
  Q 141.51 40.05 142.53 40.84
  Z
  M 85.23 97.40
  Q 73.37 97.66 67.43 105.69
  Q 64.61 109.51 68.75 112.31
  Q 69.14 112.57 69.61 112.47
  Q 72.10 111.92 73.48 109.94
  Q 75.59 106.92 80.11 105.05
  C 81.43 104.51 82.69 104.52 83.86 103.78
  Q 84.29 103.51 84.80 103.50
  Q 89.27 103.47 93.69 102.96
  Q 94.01 102.92 94.77 103.01
  Q 95.58 103.11 95.82 102.48
  Q 95.92 102.25 96.22 102.33
  Q 107.93 105.15 113.33 114.90
  C 115.03 117.97 117.82 120.60 121.41 119.56
  C 126.01 118.22 126.97 113.75 125.34 109.66
  C 121.95 101.14 121.85 93.91 127.24 86.29
  C 132.72 78.55 122.76 72.51 116.73 78.29
  C 113.21 81.66 110.89 87.48 110.25 92.77
  Q 110.15 93.62 109.41 93.18
  Q 104.95 90.54 99.62 88.85
  C 94.55 87.24 89.98 84.62 87.45 79.75
  C 83.85 72.85 86.18 67.91 90.24 62.32
  C 92.39 59.37 90.42 55.76 87.59 54.20
  C 83.88 52.15 79.91 54.32 77.64 57.47
  Q 72.46 64.68 72.33 73.00
  Q 72.15 85.07 80.91 93.58
  Q 82.84 95.45 85.23 97.40
  Z
  M 52.31 134.19
  C 58.50 131.57 66.16 130.35 72.72 130.09
  C 82.19 129.72 81.51 116.77 72.22 116.92
  Q 60.68 117.11 48.90 120.72
  C 45.39 121.79 41.71 125.67 42.65 129.71
  C 43.68 134.15 48.18 135.94 52.31 134.19
  Z
  M 105.59 133.54
  C 101.96 132.86 97.95 134.45 96.96 138.29
  Q 96.07 141.75 98.44 144.29
  C 100.29 146.27 103.13 146.62 105.57 147.58
  Q 113.18 150.59 114.77 157.67
  C 115.66 161.64 119.90 164.78 123.80 162.60
  C 129.85 159.22 127.92 152.17 125.04 147.37
  Q 118.16 135.90 105.59 133.54
  Z"
/>
<path fill="#004457" d="
  M 95.82 102.48
  L 85.23 97.40
  Q 82.84 95.45 80.91 93.58
  Q 72.15 85.07 72.33 73.00
  Q 72.46 64.68 77.64 57.47
  C 79.91 54.32 83.88 52.15 87.59 54.20
  C 90.42 55.76 92.39 59.37 90.24 62.32
  C 86.18 67.91 83.85 72.85 87.45 79.75
  C 89.98 84.62 94.55 87.24 99.62 88.85
  Q 104.95 90.54 109.41 93.18
  Q 110.15 93.62 110.25 92.77
  C 110.89 87.48 113.21 81.66 116.73 78.29
  C 122.76 72.51 132.72 78.55 127.24 86.29
  C 121.85 93.91 121.95 101.14 125.34 109.66
  C 126.97 113.75 126.01 118.22 121.41 119.56
  C 117.82 120.60 115.03 117.97 113.33 114.90
  Q 107.93 105.15 96.22 102.33
  Q 95.92 102.25 95.82 102.48
  Z"
/>
<path fill="#004457" d="
  M 214.32 97.29
  L 204.69 101.70
  Q 196.66 103.51 190.87 108.69
  C 188.38 110.91 187.19 113.88 185.33 116.54
  C 180.40 123.56 170.76 117.81 174.10 109.81
  C 177.12 102.57 177.90 95.19 173.74 88.26
  C 172.58 86.32 170.83 84.41 171.02 82.02
  C 171.52 75.63 178.99 74.04 183.11 78.53
  Q 188.20 84.08 189.23 92.97
  A 0.33 0.33 0.0 0 0 189.70 93.23
  Q 195.94 90.29 202.32 87.74
  Q 209.82 84.75 212.73 78.34
  C 214.69 74.02 214.19 69.05 211.28 65.24
  C 208.83 62.03 206.82 58.35 210.86 55.07
  C 214.98 51.72 219.57 54.02 222.16 57.84
  Q 230.30 69.85 225.66 82.70
  Q 222.59 91.17 214.32 97.29
  Z"
/>
<path fill="#00bbb3" d="
  M 55.98 62.71
  Q 57.61 64.37 57.24 65.75
  Q 56.76 67.52 56.46 69.57
  Q 55.35 83.79 64.95 93.97
  A 1.97 1.95 -55.8 0 1 65.34 96.05
  Q 64.49 98.18 62.12 99.19
  Q 60.05 97.04 58.28 94.98
  Q 54.29 90.31 53.11 84.27
  Q 50.84 72.70 55.98 62.71
  Z"
/>
<path fill="#00bbb3" d="
  M 243.95 63.46
  Q 250.93 78.35 243.53 93.00
  Q 242.10 95.83 238.63 99.43
  Q 235.61 98.13 234.83 95.00
  Q 234.71 94.51 235.02 94.11
  Q 236.51 92.18 237.79 90.32
  Q 244.65 80.37 242.89 70.77
  Q 243.55 68.32 242.84 66.70
  Q 242.10 65.00 243.95 63.46
  Z"
/>
<path fill="#00bbb3" d="
  M 31.75 113.14
  L 31.33 116.19
  Q 29.90 117.15 29.36 119.00
  Q 24.29 136.42 37.42 147.35
  Q 45.39 153.99 56.32 151.24
  C 59.77 150.37 60.66 151.62 62.24 154.35
  Q 62.95 155.58 64.25 156.29
  Q 65.33 156.88 66.37 157.50
  Q 67.27 158.04 67.99 158.91
  Q 70.11 161.48 73.22 162.92
  L 73.66 167.39
  Q 73.71 167.94 73.16 167.84
  C 67.70 166.82 63.18 160.87 60.09 156.02
  Q 59.78 155.53 59.25 155.75
  Q 51.59 158.77 43.42 157.00
  Q 36.22 155.44 31.47 149.04
  Q 18.17 131.13 31.75 113.14
  Z"
/>
<path fill="#004457" d="
  M 52.31 134.19
  C 48.18 135.94 43.68 134.15 42.65 129.71
  C 41.71 125.67 45.39 121.79 48.90 120.72
  Q 60.68 117.11 72.22 116.92
  C 81.51 116.77 82.19 129.72 72.72 130.09
  C 66.16 130.35 58.50 131.57 52.31 134.19
  Z"
/>
<path fill="#004457" d="
  M 245.94 133.94
  C 240.40 131.72 233.81 130.51 227.41 130.29
  C 217.05 129.94 218.09 116.74 227.77 117.00
  Q 235.36 117.21 243.83 118.78
  C 249.72 119.88 258.81 122.33 257.44 129.70
  Q 256.54 134.57 251.73 135.11
  Q 249.49 135.37 245.94 133.94
  Z"
/>
<path fill="#00bbb3" d="
  M 272.30 119.68
  Q 280.18 141.93 263.60 153.37
  Q 258.28 157.05 253.60 157.56
  Q 246.07 158.38 240.99 155.41
  Q 240.39 155.06 240.06 155.67
  C 237.18 160.99 232.60 166.37 226.54 167.85
  Q 225.94 168.00 226.00 167.38
  L 226.50 162.26
  Q 228.05 162.94 228.34 159.60
  Q 228.38 159.10 228.71 158.72
  C 230.12 157.09 231.68 155.73 232.72 153.84
  Q 233.92 151.65 236.19 150.56
  Q 237.95 149.73 240.24 150.25
  Q 243.42 150.97 246.83 151.79
  Q 250.46 152.67 255.18 151.08
  Q 268.09 146.72 271.30 132.80
  Q 271.98 129.84 271.15 124.51
  Q 270.43 119.81 272.30 119.68
  Z"
/>
<path fill="#004457" d="
  M 105.59 133.54
  Q 118.16 135.90 125.04 147.37
  C 127.92 152.17 129.85 159.22 123.80 162.60
  C 119.90 164.78 115.66 161.64 114.77 157.67
  Q 113.18 150.59 105.57 147.58
  C 103.13 146.62 100.29 146.27 98.44 144.29
  Q 96.07 141.75 96.96 138.29
  C 97.95 134.45 101.96 132.86 105.59 133.54
  Z"
/>
<path fill="#004457" d="
  M 174.99 146.51
  Q 181.83 135.55 194.58 133.42
  C 203.42 131.95 206.69 144.81 196.82 146.84
  C 191.88 147.86 186.88 150.60 185.37 155.78
  C 184.86 157.52 184.45 159.34 183.32 160.80
  C 179.38 165.93 172.31 162.10 171.60 157.00
  C 171.13 153.60 173.22 149.33 174.99 146.51
  Z"
/>
<path fill="#00bbb3" d="
  M 87.60 157.49
  C 88.13 159.69 88.48 161.77 89.43 163.82
  C 98.80 184.13 126.54 185.72 139.22 167.68
  Q 139.90 166.71 140.97 164.10
  Q 141.73 162.25 142.97 160.58
  Q 143.63 172.17 136.06 179.54
  Q 129.05 186.37 118.17 187.39
  Q 101.69 188.94 91.91 176.69
  C 87.93 171.71 85.64 164.00 87.60 157.49
  Z"
/>
<path fill="#00bbb3" d="
  M 212.30 158.39
  Q 213.16 164.57 212.48 167.28
  C 208.65 182.52 194.41 189.39 179.62 187.14
  Q 162.32 184.51 157.25 167.76
  Q 156.81 166.31 157.00 160.77
  C 159.80 165.94 161.54 169.84 166.77 173.94
  C 175.38 180.67 186.00 182.13 196.03 177.84
  C 203.05 174.84 209.57 168.80 211.20 161.19
  Q 211.28 160.81 211.66 160.69
  Q 211.98 160.59 211.92 160.27
  Q 211.67 158.85 212.30 158.39
  Z"
/>
<path fill="#004457" d="
  M 41.26 192.38
  L 32.29 211.66
  L 25.35 227.90
  L 18.95 241.76
  Q 18.67 242.37 19.32 242.25
  C 31.67 240.04 44.82 238.34 56.91 238.56
  Q 63.83 238.69 70.05 239.10
  C 85.84 240.12 103.13 244.98 117.15 252.50
  C 120.78 254.45 124.11 256.96 127.38 259.50
  Q 127.98 259.96 128.31 259.28
  Q 130.90 254.01 135.21 250.27
  A 0.79 0.79 0.0 0 0 135.27 249.15
  C 124.85 237.79 110.52 228.86 96.24 223.71
  Q 93.56 222.74 90.71 222.04
  Q 84.71 219.48 76.31 218.15
  Q 74.03 217.79 71.47 215.90
  Q 67.10 209.72 73.93 205.12
  Q 80.84 204.86 90.50 207.68
  C 112.56 214.12 135.86 227.28 149.64 246.13
  A 0.45 0.45 0.0 0 0 150.38 246.11
  C 152.27 243.23 154.36 240.74 156.83 238.24
  Q 182.46 212.39 220.26 205.20
  Q 224.13 204.46 226.61 205.30
  Q 232.56 209.51 228.90 216.27
  Q 220.48 218.89 209.47 221.34
  Q 208.82 221.49 208.66 221.99
  Q 207.47 222.13 206.55 222.67
  L 205.26 223.03
  Q 188.51 228.95 174.48 239.70
  Q 169.33 243.65 164.35 249.26
  A 0.72 0.72 0.0 0 0 164.41 250.28
  Q 168.77 254.10 171.49 259.28
  A 0.49 0.48 -34.0 0 0 172.24 259.42
  Q 181.28 251.73 194.68 246.84
  Q 215.80 239.14 237.25 238.46
  Q 252.11 237.99 266.83 240.21
  Q 267.80 240.62 268.69 240.29
  L 280.76 242.52
  A 0.28 0.28 0.0 0 0 281.06 242.12
  Q 277.80 235.42 274.79 228.34
  Q 274.73 228.22 274.61 228.16
  Q 274.40 228.06 274.27 228.24
  L 267.11 210.87
  L 258.73 192.20
  Q 257.14 188.22 259.89 185.66
  C 265.07 180.83 270.16 185.79 272.34 190.58
  Q 288.81 226.80 298.06 248.21
  Q 301.33 255.77 298.52 263.98
  Q 294.74 275.05 283.69 278.93
  Q 279.76 280.30 274.50 280.29
  Q 225.05 280.16 174.20 280.27
  A 0.96 0.95 -75.5 0 0 173.39 280.75
  C 162.52 299.48 137.45 298.88 126.26 280.91
  A 1.62 1.60 -15.7 0 0 124.89 280.15
  Q 73.20 280.32 23.00 280.23
  Q 16.30 280.22 10.29 276.00
  Q 0.70 269.28 0.00 257.67
  L 0.00 253.75
  Q 1.46 248.05 3.92 242.69
  Q 16.31 215.66 28.54 188.57
  Q 29.51 186.43 32.16 184.72
  Q 34.71 183.06 37.43 184.37
  Q 42.49 186.79 41.26 192.38
  Z
  M 18.58 256.00
  L 14.00 256.78
  Q 12.90 256.97 13.17 258.06
  Q 14.49 263.27 18.97 265.72
  Q 21.45 267.08 26.35 267.07
  Q 72.97 266.94 114.80 267.06
  Q 116.56 267.07 115.01 266.22
  Q 105.21 260.87 95.54 257.68
  Q 76.86 251.72 55.75 252.28
  Q 35.88 252.81 18.58 256.00
  Z
  M 206.19 256.89
  Q 194.67 260.29 184.33 266.12
  Q 182.66 267.05 184.57 267.05
  Q 229.05 266.96 274.50 267.11
  Q 282.86 267.13 286.19 258.46
  Q 286.62 257.32 285.48 256.92
  Q 281.12 255.39 277.33 256.05
  Q 266.86 253.43 253.00 252.67
  Q 231.85 251.52 214.01 254.82
  Q 209.99 255.56 206.19 256.89
  Z
  M 161.6967 271.1016
  A 11.81 11.32 3.6 0 0 150.6208 259.0623
  A 11.81 11.32 3.6 0 0 138.1233 269.6184
  A 11.81 11.32 3.6 0 0 149.1992 281.6577
  A 11.81 11.32 3.6 0 0 161.6967 271.1016
  Z"
/>
<path fill="#a3ebeb" d="
  M 41.26 192.38
  Q 44.33 192.27 46.57 193.06
  A 1.41 1.36 50.6 0 0 47.16 193.13
  L 49.25 192.94
  Q 49.91 192.87 49.75 193.52
  Q 49.57 194.27 49.06 194.80
  Q 48.70 195.16 48.50 195.63
  L 47.16 198.75
  Q 46.26 200.85 48.54 201.00
  Q 49.04 201.04 49.50 201.30
  Q 50.03 201.61 50.63 201.50
  Q 51.82 201.28 52.83 201.84
  Q 53.48 202.20 54.21 202.07
  Q 56.34 201.72 58.18 202.49
  Q 58.73 202.72 59.30 202.58
  Q 59.94 202.42 60.45 202.80
  Q 60.85 203.11 61.35 203.19
  L 73.93 205.12
  Q 67.10 209.72 71.47 215.90
  L 58.44 213.25
  A 1.23 1.04 -40.3 0 0 58.07 213.25
  Q 55.92 213.59 54.03 212.87
  Q 53.46 212.66 52.86 212.73
  Q 50.67 212.97 48.77 212.30
  Q 48.28 212.13 47.77 212.18
  Q 45.77 212.38 42.24 211.73
  Q 39.99 211.31 32.29 211.66
  L 41.26 192.38
  Z"
/>
<path fill="#a3ebeb" d="
  M 258.73 192.20
  L 267.11 210.87
  Q 262.50 211.86 258.14 211.62
  Q 257.93 211.61 257.75 211.71
  Q 257.56 211.81 257.39 211.93
  A 0.58 0.53 -61.8 0 1 257.11 212.03
  L 247.00 212.72
  A 0.83 0.82 -61.9 0 0 246.61 212.84
  C 245.16 213.66 243.50 213.13 241.84 213.51
  Q 240.13 213.89 238.42 214.29
  C 237.11 214.60 235.87 214.24 234.68 214.78
  A 1.91 1.84 34.2 0 1 233.75 214.94
  Q 231.30 214.75 228.90 216.27
  Q 232.56 209.51 226.61 205.30
  Q 229.96 204.37 233.20 203.80
  Q 235.55 203.39 238.13 203.19
  Q 239.70 203.08 241.39 202.64
  C 242.84 202.26 244.04 201.98 245.57 202.00
  Q 247.92 202.04 250.38 201.06
  Q 251.34 200.68 252.35 201.00
  A 0.91 0.91 0.0 0 0 253.49 199.82
  Q 252.38 196.85 250.65 194.40
  Q 250.32 193.94 250.76 193.59
  Q 251.61 192.92 252.73 193.07
  Q 253.24 193.14 253.70 192.93
  C 255.43 192.13 257.48 193.09 258.73 192.20
  Z"
/>
<path fill="#a3ebeb" d="
  M 25.35 227.90
  Q 28.62 227.83 31.66 227.33
  Q 35.55 226.69 37.92 226.68
  Q 48.71 226.66 59.51 226.70
  Q 60.03 226.70 60.48 226.95
  C 61.77 227.66 63.90 227.04 65.47 227.50
  C 67.22 228.02 68.73 227.52 70.44 228.00
  Q 72.44 228.56 74.65 228.79
  Q 77.07 229.04 78.83 229.52
  Q 81.67 230.29 84.58 230.89
  Q 86.32 231.24 87.61 231.19
  Q 88.03 231.17 88.42 231.30
  L 94.08 233.05
  Q 94.80 233.28 95.14 232.61
  L 96.49 229.99
  Q 96.82 229.34 96.13 229.10
  L 95.72 228.96
  A 0.45 0.45 0.0 0 0 95.16 229.20
  Q 94.87 229.85 94.30 230.17
  Q 93.67 230.52 93.52 229.81
  Q 93.20 228.18 94.56 227.29
  Q 95.03 226.98 95.43 227.38
  Q 95.92 227.86 96.57 227.93
  Q 97.04 227.98 97.06 227.51
  L 97.08 227.00
  A 0.95 0.94 10.5 0 0 96.44 226.08
  Q 94.80 225.52 93.99 223.97
  Q 93.75 223.53 93.27 223.42
  Q 91.72 223.07 90.71 222.04
  Q 93.56 222.74 96.24 223.71
  C 110.52 228.86 124.85 237.79 135.27 249.15
  A 0.79 0.79 0.0 0 1 135.21 250.27
  Q 130.90 254.01 128.31 259.28
  Q 127.98 259.96 127.38 259.50
  C 124.11 256.96 120.78 254.45 117.15 252.50
  C 103.13 244.98 85.84 240.12 70.05 239.10
  Q 63.83 238.69 56.91 238.56
  C 44.82 238.34 31.67 240.04 19.32 242.25
  Q 18.67 242.37 18.95 241.76
  L 25.35 227.90
  Z"
/>
<path fill="#a3ebeb" d="
  M 208.66 221.99
  L 208.53 222.93
  Q 208.46 223.48 207.91 223.37
  Q 207.24 223.23 206.55 222.67
  Q 207.47 222.13 208.66 221.99
  Z"
/>
<path fill="#a3ebeb" d="
  M 205.26 223.03
  Q 204.69 224.23 202.87 224.70
  Q 202.38 224.82 202.40 225.33
  L 202.50 228.24
  Q 202.53 229.15 201.63 228.98
  Q 201.49 228.95 201.34 228.96
  A 0.68 0.68 0.0 0 0 200.75 229.84
  Q 201.09 230.95 199.97 231.09
  Q 199.40 231.16 199.08 231.66
  Q 198.81 232.08 199.13 232.58
  A 0.71 0.68 72.0 0 0 199.75 232.91
  Q 200.94 232.88 201.88 233.41
  Q 202.67 233.86 202.93 232.99
  L 203.06 232.58
  A 0.53 0.52 37.7 0 1 204.01 232.46
  L 204.36 233.02
  Q 204.76 233.67 205.48 233.42
  Q 208.96 232.20 212.75 231.26
  C 213.72 231.02 214.64 231.27 215.65 230.98
  Q 217.70 230.39 219.88 230.08
  Q 221.77 229.82 223.71 229.30
  Q 226.47 228.56 229.31 228.35
  Q 230.49 228.26 231.60 227.94
  C 232.80 227.59 233.86 227.96 235.08 227.64
  Q 237.61 226.97 240.64 227.29
  Q 241.51 227.38 242.29 226.96
  Q 242.75 226.70 243.29 226.70
  Q 251.41 226.69 259.98 226.67
  Q 261.74 226.66 263.51 227.04
  Q 265.69 227.51 267.82 227.24
  Q 268.47 227.15 269.06 227.45
  Q 270.15 228.00 271.45 227.78
  Q 271.96 227.69 272.38 228.00
  Q 273.40 228.75 274.27 228.24
  Q 274.40 228.06 274.61 228.16
  Q 274.73 228.22 274.79 228.34
  Q 277.80 235.42 281.06 242.12
  A 0.28 0.28 0.0 0 1 280.76 242.52
  L 268.69 240.29
  Q 268.67 239.55 268.54 239.36
  A 1.01 1.01 0.0 0 0 267.21 239.04
  Q 266.82 239.25 266.83 240.21
  Q 252.11 237.99 237.25 238.46
  Q 215.80 239.14 194.68 246.84
  Q 181.28 251.73 172.24 259.42
  A 0.49 0.48 -34.0 0 1 171.49 259.28
  Q 168.77 254.10 164.41 250.28
  A 0.72 0.72 0.0 0 1 164.35 249.26
  Q 169.33 243.65 174.48 239.70
  Q 188.51 228.95 205.26 223.03
  Z"
/>
<ellipse fill="#a3ebeb" cx="0.00" cy="0.00" transform="translate(204.68,226.58) rotate(95.3)" rx="1.12" ry="0.68"/>
<path fill="#a3ebeb" d="
  M 95.54 257.68
  L 95.63 258.11
  A 0.67 0.66 -84.7 0 1 94.73 258.86
  Q 91.83 257.69 88.53 257.31
  C 84.19 256.82 79.88 256.22 75.49 256.41
  C 68.50 256.70 61.65 256.12 54.83 256.25
  Q 41.11 256.50 27.86 256.40
  C 27.15 256.40 25.68 256.02 25.24 256.14
  Q 21.48 257.26 18.58 256.00
  Q 35.88 252.81 55.75 252.28
  Q 76.86 251.72 95.54 257.68
  Z"
/>
<path fill="#a3ebeb" d="
  M 277.33 256.05
  Q 246.18 256.05 215.70 256.56
  C 212.51 256.61 209.54 257.45 206.43 257.88
  A 0.38 0.38 0.0 0 1 206.00 257.49
  Q 206.01 257.29 206.19 256.89
  Q 209.99 255.56 214.01 254.82
  Q 231.85 251.52 253.00 252.67
  Q 266.86 253.43 277.33 256.05
  Z"
/>
<path fill="#4de5da" d="
  M 277.33 256.05
  Q 281.12 255.39 285.48 256.92
  Q 286.62 257.32 286.19 258.46
  Q 282.86 267.13 274.50 267.11
  Q 229.05 266.96 184.57 267.05
  Q 182.66 267.05 184.33 266.12
  Q 194.67 260.29 206.19 256.89
  Q 206.01 257.29 206.00 257.49
  A 0.38 0.38 0.0 0 0 206.43 257.88
  C 209.54 257.45 212.51 256.61 215.70 256.56
  Q 246.18 256.05 277.33 256.05
  Z"
/>
<path fill="#4de5da" d="
  M 18.58 256.00
  Q 21.48 257.26 25.24 256.14
  C 25.68 256.02 27.15 256.40 27.86 256.40
  Q 41.11 256.50 54.83 256.25
  C 61.65 256.12 68.50 256.70 75.49 256.41
  C 79.88 256.22 84.19 256.82 88.53 257.31
  Q 91.83 257.69 94.73 258.86
  A 0.67 0.66 -84.7 0 0 95.63 258.11
  L 95.54 257.68
  Q 105.21 260.87 115.01 266.22
  Q 116.56 267.07 114.80 267.06
  Q 72.97 266.94 26.35 267.07
  Q 21.45 267.08 18.97 265.72
  Q 14.49 263.27 13.17 258.06
  Q 12.90 256.97 14.00 256.78
  L 18.58 256.00
  Z"
/>
</svg>
